PathFileType	4	(X/Y/Z)	D:\TRACE\v60_Jaco2_6-2-23\BothDRS_Motion3_4-platform.trc
DataRate	CameraRate	NumFrames	NumMarkers	Units	OrigDataRate	OrigDataStartFrame	OrigNumFrames
100.00	100.00	      42	5	mm	100.00	3501	      7000
Frame#	Time	Left_Front			Right_Front			Left_Aft			Right_Aft			Post			
		X1	Y1	Z1	X2	Y2	Z2	X3	Y3	Z3	X4	Y4	Z4	X5	Y5	Z5	

3501	35.000	-752.67365	14.26595	-649.52582	818.45032	12.68409	-627.21484	-683.11243	8.42815	486.84631	730.89502	4.89527	589.88489	42.53779	1313.83972	-954.18347	
3502	35.010	-753.05908	14.88661	-649.11536	817.85577	13.48738	-626.62878	-683.52124	7.97597	487.15408	730.54340	4.06427	590.29700	42.67848	1314.75305	-952.46045	
3503	35.020	-753.05341	15.23398	-649.00946	817.65808	14.10337	-626.43323	-683.73132	7.36056	487.42200	730.41223	3.93922	590.30017	41.94213	1315.59448	-950.99664	
3504	35.030	-753.19733	15.77295	-648.86481	817.40594	14.85618	-626.00220	-683.89569	6.85432	487.63882	730.31049	3.59315	590.42535	41.82930	1316.58337	-949.63336	
3505	35.040	-753.31439	17.06612	-648.85309	817.15222	15.27379	-626.09796	-684.20050	6.60933	487.82550	729.93945	3.08468	590.63971	41.40005	1317.39355	-947.97736	
3506	35.050	-753.52625	17.55351	-648.70343	816.87610	15.86386	-625.97473	-684.63257	6.37161	487.78690	729.58130	2.46371	590.76367	41.18751	1318.57764	-946.79803	
3507	35.060	-753.80261	17.87374	-648.47571	816.57477	16.51580	-625.65210	-684.75995	5.86128	488.06143	729.06506	1.74329	590.96320	40.91203	1319.28906	-945.12335	
3508	35.070	-754.39520	18.43035	-648.17114	816.17212	17.18565	-625.68427	-684.90167	5.27097	488.39105	728.84326	1.26276	591.06976	40.57777	1320.25708	-943.74213	
3509	35.080	-755.05109	19.17169	-647.93622	815.64886	17.88880	-625.57159	-685.41046	4.65469	488.46820	728.13129	0.51041	591.17206	40.37928	1321.04138	-942.72101	
3510	35.090	-755.37286	19.80080	-648.05267	815.37384	18.55283	-625.31030	-685.84302	4.20092	488.56851	728.38849	0.67521	591.13086	39.89800	1322.39905	-941.14526	
3511	35.100	-755.43475	20.65225	-647.63770	814.90765	19.12083	-625.14966	-686.17151	3.90723	488.60532	727.78888	-0.20980	591.27917	39.52666	1323.28882	-939.83826	
3512	35.110	-756.08698	21.34430	-648.14502	814.52637	19.71287	-625.02930	-686.53967	3.47832	488.76135	727.51062	-0.70524	591.60217	38.96437	1324.27795	-938.41162	
3513	35.120	-756.35492	21.94111	-647.76172	814.26770	20.37469	-624.82550	-687.05579	3.05018	488.94870	727.18329	-1.33191	591.68427	38.64653	1325.06152	-937.00250	
3514	35.130	-756.61945	22.44429	-647.51532	813.88025	21.00100	-624.57471	-687.12976	2.56700	489.09146	726.63806	-2.28088	591.70374	38.78315	1325.94653	-935.77374	
3515	35.140	-757.06488	22.99573	-647.13153	813.57861	21.74897	-624.34167	-687.65405	2.15895	489.14560	726.33539	-2.38197	591.86884	38.07456	1327.01953	-934.29749	
3516	35.150	-757.57568	23.66608	-646.85724	813.20825	22.39419	-624.30676	-688.18793	1.49358	489.14731	726.15570	-2.74877	592.03619	37.61139	1327.83435	-932.89496	
3517	35.160	-758.27252	24.11001	-646.51831	812.69751	22.97173	-624.22424	-688.58655	1.18046	489.33514	725.61536	-3.29466	592.34338	36.98542	1328.75403	-931.15710	
3518	35.170	-758.62848	25.05932	-646.80646	812.12347	23.54022	-624.00732	-689.03070	0.90313	489.48441	724.92615	-3.83071	592.44464	36.49477	1329.44055	-929.75146	
3519	35.180	-758.98474	25.69185	-646.86688	811.70520	24.05612	-623.98120	-689.62238	0.40997	489.67899	724.76520	-4.08309	592.71332	36.16710	1330.42407	-927.95996	
3520	35.190	-758.87158	26.16758	-646.49750	811.26233	24.79150	-623.80365	-689.78369	0.19695	489.84006	724.46069	-4.72905	592.71149	35.90407	1331.33813	-926.69513	
3521	35.200	-759.60724	26.97934	-646.56573	810.94067	25.42621	-623.54865	-690.25757	-0.20402	489.89386	724.08295	-5.28592	592.87708	35.11347	1332.19446	-925.18585	
3522	35.210	-760.37006	27.66604	-646.04181	810.56915	25.94465	-623.38654	-690.86212	-0.79037	490.07422	723.54529	-5.85072	592.83881	34.81604	1332.89893	-924.01208	
3523	35.220	-760.67651	27.96494	-645.84015	810.06226	26.58279	-623.13312	-691.30743	-1.29634	490.27106	722.67920	-6.54476	593.04987	34.49091	1333.88464	-922.62018	
3524	35.230	-761.03125	28.52646	-645.67157	809.59546	27.08048	-623.07013	-691.71918	-1.68900	490.42819	722.22681	-6.85908	593.30402	33.75525	1334.66711	-921.47449	
3525	35.240	-761.44672	29.31917	-645.74493	808.99182	27.71251	-622.91150	-692.23132	-2.24203	490.49295	722.19641	-7.12408	593.39587	33.15038	1335.41418	-920.53149	
3526	35.250	-761.92267	29.69570	-645.80609	808.51764	28.22845	-622.81494	-692.71771	-2.53600	490.71115	721.50610	-7.68665	593.41870	32.48007	1336.35840	-919.16473	
3527	35.260	-762.72760	30.29712	-645.62402	807.95697	28.63270	-622.70660	-693.11023	-2.78330	490.69208	720.87805	-8.54200	593.62988	32.41443	1336.99927	-918.07281	
3528	35.270	-763.30566	30.95239	-645.25531	807.47858	29.26044	-622.55322	-693.77838	-3.31822	490.88889	720.47662	-8.64577	593.72650	32.14706	1337.95959	-916.98651	
3529	35.280	-763.34229	31.74956	-644.77582	807.02417	29.72685	-622.34705	-694.16620	-3.59752	491.22293	719.83142	-8.93209	594.29352	31.48456	1338.74268	-915.72943	
3530	35.290	-763.67230	32.08841	-644.38617	806.62329	30.36369	-622.13208	-694.72174	-3.93679	491.23285	719.61078	-9.43282	593.73553	30.65433	1339.82874	-914.59265	
3531	35.300	-764.29242	32.45700	-644.32959	806.08344	30.96411	-621.88788	-695.35046	-4.51513	491.16855	718.88971	-9.90455	593.89008	30.04725	1340.57629	-912.96033	
3532	35.310	-764.98572	33.26884	-644.60901	805.52209	31.45753	-621.89606	-695.94147	-4.86675	491.26990	718.25452	-10.72799	594.10089	29.70722	1341.23267	-911.73602	
3533	35.320	-765.77606	33.74817	-644.61304	804.74438	31.87265	-621.80658	-696.32031	-5.14081	491.34735	717.83838	-10.80066	594.20691	28.79569	1341.80737	-910.13007	
3534	35.330	-766.48346	34.38585	-644.66418	804.16162	32.12756	-621.65912	-696.91608	-5.60650	491.33444	717.20300	-11.20811	594.45544	28.45601	1342.32935	-908.78186	
3535	35.340	-767.09314	34.82169	-644.56409	803.73737	32.75629	-621.50885	-697.63873	-5.78438	491.46841	716.38928	-11.89053	594.41284	27.69655	1342.95667	-907.28491	
3536	35.350	-767.40179	35.00781	-644.34344	803.13422	33.08847	-621.41382	-698.17255	-5.76536	491.59006	715.78314	-12.17637	594.44568	27.49409	1343.41541	-906.52216	
3537	35.360	-767.73975	35.36792	-644.21625	802.65070	33.53901	-621.28998	-698.98010	-6.11210	491.62119	715.37366	-12.33018	594.51166	26.93135	1344.16577	-905.45978	
3538	35.370	-768.40680	35.77505	-643.86340	802.07648	34.09684	-621.14435	-699.47931	-6.15122	491.62454	715.13708	-12.57850	594.65314	25.98330	1345.02063	-904.70874	
3539	35.380	-769.27545	36.40980	-643.53888	801.26740	34.52242	-621.02838	-700.23187	-6.22812	491.72418	714.08533	-13.12200	594.94104	25.34476	1345.60071	-904.30322	
3540	35.390	-769.80664	36.87589	-643.77106	800.82428	34.93258	-620.97626	-700.91187	-6.73248	491.81189	713.37604	-13.58366	594.88257	25.05956	1345.67603	-903.78326	
3541	35.400	-770.43970	37.22859	-643.81635	800.27307	35.29019	-620.70068	-701.33295	-7.10828	491.98029	712.80530	-13.91151	594.96167	24.21090	1346.70105	-902.96948	
3542	35.410	-771.01758	37.81823	-643.55731	799.56091	35.75586	-620.62775	-701.95587	-7.53315	492.00153	712.29742	-13.99572	595.00824	23.52137	1347.34021	-902.60950	
